<?xml version="1.0" encoding="UTF-8" standalone="no"?>
<svg
   xmlns:dc="http://purl.org/dc/elements/1.1/"
   xmlns:cc="http://creativecommons.org/ns#"
   xmlns:rdf="http://www.w3.org/1999/02/22-rdf-syntax-ns#"
   xmlns:svg="http://www.w3.org/2000/svg"
   xmlns="http://www.w3.org/2000/svg"
   viewBox="0 0 32 32"
   height="32"
   width="32"
   y="0px"
   x="0px"
   version="1.1">
  <metadata
     id="metadata64">
    <rdf:RDF>
      <cc:Work
         rdf:about="">
        <dc:format>image/svg+xml</dc:format>
        <dc:type
           rdf:resource="http://purl.org/dc/dcmitype/StillImage" />
        <dc:title></dc:title>
      </cc:Work>
    </rdf:RDF>
  </metadata>
  <defs
     id="defs62" />
  <g id="icon">   
  <g
     id="g5384">
    <path
       style="fill:none;stroke:#ff0000;stroke-width:0.51700002"
       id="path114"
       d="m 28.602,6.962 c 0.729,0 3.07,0.806 3.07,5.002 0,3.55 -1.180002,11.560179 -1.246826,17.286645 l 0,2.199" />
    <path
       style="fill:none;stroke:#000000;stroke-width:0.51700002"
       id="path112"
       d="m 28.596,21.453646 c 0.977,0 1.084355,0.17 1.084355,2.645 0,3.408 -0.235887,2.323119 -0.235887,5.214119 l 0,2.2" />
  </g>
  <g
     transform="translate(35.397989,-1.8359395)"
     id="g5289">
    <path
       style="fill:#1a1a1a"
       d="m -6.6315619,28.755249 c 0,0.192524 -0.207714,0.32619 -0.390175,0.32619 l -27.2146921,0 c -0.2586,0 -0.39056,-0.109363 -0.39056,-0.32619 l 0,-24.5561883 c 0,-0.1718295 0.16101,-0.3256213 0.39056,-0.3256213 l 27.2146921,0 c 0.211321,0 0.390175,0.1294889 0.390175,0.3256213 l 0,12.0048763 0,12.551312 z"
       id="path4199" />
    <path
       style="fill:none;stroke:#c9c9c9;stroke-width:0.15844357"
       d="m -34.220109,12.860958 0,-7.6014932 c 0,-0.1120212 0.0737,-0.2050557 0.16386,-0.2050557 0.0902,0 0.16328,0.092845 0.16328,0.2050557 l 0.17335,3.7075226 c 0,0.11278 0.0742,0.205056 0.16386,0.205056 0.0896,0 0.16385,-0.09228 0.16385,-0.205056 l 0.17335,-2.8723 c 0,-0.1125908 0.0739,-0.2050558 0.16347,-0.2050558 0.0902,0 0.16348,0.092465 0.16348,0.2050558 l 0,2.2569426"
       id="path4201" />
    <path
       style="fill:none;stroke:#c9c9c9;stroke-width:0.15844357"
       d="m -7.1508469,5.8425447 0,2.7447096 c 0,0.1127806 0.110693,0.2050557 0.245877,0.2050557 l 0.278155,0"
       id="path4203" />
    <rect
       style="fill:#c9c9c9"
       width="0.6569379"
       x="-34.303459"
       y="12.048899"
       height="2.2831442"
       id="rect4205" />
    <rect
       style="fill:#c9c9c9"
       width="0.56010604"
       x="-7.691206"
       y="5.8546958"
       height="2.2839036"
       id="rect4207" />
    <g
       transform="matrix(0.18986644,0,0,0.18986646,-34.627369,3.8734394)"
       id="g4209">
      <path
         style="fill:#353535"
         d="m 139.273,28.955 c 0,1.784 -1.747,3.24 -3.883,3.24 l -121.926,0 c -2.136,0 -3.883,-1.456 -3.883,-3.24 l 0,-23.76 c 0,-1.781 1.747,-3.239 3.883,-3.239 l 121.926,0 c 2.137,0 3.884,1.458 3.884,3.239 l -0.001,23.76 0,0 z"
         id="path4211" />
      <path
         style="fill:#ce925d"
         d="m 101.94,2.005 33.709,0 c 2.136,0 3.883,1.457 3.883,3.24 l 0,23.766 c 0,1.782 -1.747,3.24 -3.883,3.24 l -33.709,0 0,-30.246 z"
         id="path4213" />
      <path
         style="opacity:0.35"
         enable-background="new    "
         d="m 13.758,30.957 c -1.607,0 -3.658,-1.242 -3.658,-2.714 l 0,-6.801 c 0,1.474 2.051,3.784 3.658,3.784 l 121.041,0 c 1.608,0 3.659,-2.31 3.659,-3.784 l 0,6.802 c 0,1.474 -2.051,2.714 -3.659,2.714 l -121.041,-10e-4 0,0 z"
         id="path4215" />
      <path
         style="fill:#b2b2b2"
         d="m 139.164,16.875 c 0,6.774 -0.31,12.263 -0.691,12.263 -0.381,0 -0.382,-24.524 0,-24.524 0.382,0 0.691,5.489 0.691,12.261"
         id="path4217" />
      <path
         style="fill:#7c7c7c"
         d="m 138.906,21.055 c -0.254,0 -0.254,-9.061 0,-9.061 l -0.008,0 c 0,0.559 0.543,1.011 1.212,1.011 l 0.549,0 c 0.668,0 1.211,0.453 1.211,1.012 l 0,5.011 c 0,0.557 -0.543,1.012 -1.211,1.012 l -0.549,0 c -0.669,0 -1.212,0.452 -1.212,1.01 l 0.008,0.005 0,0 z"
         id="path4219" />
      <g
         id="g4221">
        <g
           id="g4223">
          <path
             style="fill:#e0e0e0"
             d="m 35.434,14.8 -0.515,1.295 -1.632,0 2.727,-6.852 2.322,0 2.781,6.852 -1.599,0 -0.536,-1.295 -3.548,0 z m 1.784,-4.55 -0.022,0 -1.401,3.555 2.836,0 -1.413,-3.555 z"
             id="path4225" />
          <path
             style="fill:#e0e0e0"
             d="m 43.203,14.8 -0.515,1.295 -1.629,0 2.724,-6.852 2.322,0 2.782,6.852 -1.599,0 -0.536,-1.295 -3.549,0 z m 1.784,-4.55 -0.021,0 -1.403,3.555 2.836,0 -1.412,-3.555 z"
             id="path4229" />
          <path
             style="fill:#e0e0e0"
             d="m 53.417,16.098 0,-6.852 4.088,0 c 1.61,0 2.417,0.272 2.417,1.783 0,0.783 -0.173,1.316 -1.169,1.515 l 0,0.038 c 1.15,0.11 1.369,0.741 1.369,1.606 0,1.517 -0.745,1.911 -2.476,1.911 l -4.229,-0.001 0,0 z m 1.577,-3.984 2.264,0 c 0.891,0 1.085,-0.229 1.085,-0.959 0,-0.731 -0.351,-0.786 -1.128,-0.786 l -2.224,0 0.003,1.745 0,0 z m 0,2.86 2.158,0 c 0.938,0 1.389,-0.055 1.389,-0.896 0,-0.749 -0.197,-0.968 -1.125,-0.968 l -2.42,0 -0.002,1.864 0,0 z"
             id="path4231" />
          <path
             style="fill:#e0e0e0"
             d="m 64.998,15.494 -0.033,0 c -0.274,0.642 -1.117,0.658 -1.786,0.658 -1.303,0 -2.146,-0.229 -2.146,-1.526 0,-1.151 0.723,-1.471 2.146,-1.471 0.702,0 1.391,0.009 1.72,0.548 l 0.044,0 0,-0.622 c 0,-0.777 -0.077,-1.051 -1.227,-1.051 -0.603,0 -1.085,0.048 -1.085,0.667 l -1.381,0 c 0,-1.398 1.153,-1.451 2.464,-1.451 1.843,0 2.606,0.238 2.606,1.846 l 0,3.004 -1.382,0 0.06,-0.602 z m -2.585,-0.868 c 0,0.676 0.326,0.741 1.259,0.741 0.733,0 1.271,-0.053 1.271,-0.741 0,-0.667 -0.59,-0.685 -1.271,-0.685 -0.701,0 -1.259,0 -1.259,0.685 z"
             id="path4233" />
          <path
             style="fill:#e0e0e0"
             d="m 66.994,11.3 0.724,0 0,-1.088 1.38,0 0,1.088 2.201,0 0,0.877 -2.201,0 0,2.458 c 0.013,0.439 0.013,0.639 0.59,0.639 0.778,0 0.69,-0.511 0.69,-1.011 l 1.216,0 c 0.022,1.45 -0.417,1.889 -1.906,1.889 -1.511,0 -1.972,-0.292 -1.972,-1.508 l 0,-2.467 -0.724,0 0.002,-0.877 0,0 z"
             id="path4235" />
          <path
             style="fill:#e0e0e0"
             d="m 71.652,11.3 0.723,0 0,-1.088 1.38,0 0,1.088 2.202,0 0,0.877 -2.202,0 0,2.458 c 0.011,0.439 0.011,0.639 0.59,0.639 0.779,0 0.691,-0.511 0.691,-1.011 l 1.216,0 c 0.021,1.45 -0.417,1.889 -1.907,1.889 -1.509,0 -1.969,-0.292 -1.969,-1.508 l 0,-2.467 -0.724,0 0,-0.877 0,0 z"
             id="path4237" />
          <path
             style="fill:#e0e0e0"
             d="m 82.125,14.572 c 0,1.508 -1.042,1.581 -2.683,1.581 -2.202,0 -2.647,-0.585 -2.647,-2.439 0,-1.719 0.326,-2.465 2.647,-2.465 2.368,0 2.683,0.576 2.683,2.668 l -3.954,0 c 0,1.032 0.033,1.362 1.27,1.362 0.767,0 1.306,0.009 1.306,-0.706 l 1.378,-0.001 0,0 z m -1.38,-1.389 c 0,-0.987 -0.175,-1.062 -1.306,-1.062 -1.194,0 -1.27,0.21 -1.27,1.062 l 2.576,0 z"
             id="path4239" />
          <path
             style="fill:#e0e0e0"
             d="m 84.505,11.3 -0.03,0.631 0.055,0 c 0.274,-0.53 0.866,-0.684 1.533,-0.684 1.216,0 1.512,0.604 1.512,1.508 l 0,0.384 -1.292,0 0,-0.247 c 0,-0.484 -0.056,-0.768 -0.702,-0.768 -0.821,0 -1.062,0.396 -1.042,1.015 l 0,2.961 -1.381,0 0,-4.798 1.347,-0.002 0,0 z"
             id="path4241" />
          <path
             style="fill:#e0e0e0"
             d="m 91.702,16.29 c -0.32,1.088 -0.584,1.935 -2.19,1.935 -0.197,0 -0.394,-0.025 -0.591,-0.037 l 0,-0.868 c 0.099,0.009 0.201,0.028 0.295,0.028 0.865,0 0.997,-0.695 1.12,-1.254 l -0.667,0 -1.895,-4.798 1.427,0 1.456,4.085 0.02,0 1.119,-4.085 1.402,0 -1.496,4.994 z"
             id="path4243" />
        </g>
      </g>
      <path
         style="opacity:0.35;fill:#ffffff"
         enable-background="new    "
         d="m 135.506,10.888 c 0,1.08 -1.406,1.956 -3.141,1.956 l -116.276,0 c -1.732,0 -3.14,-0.8 -3.14,-1.88 l 0,-5.895 c 0,-1.081 1.406,-2.033 3.14,-2.033 l 116.275,0 c 1.735,0 3.143,0.876 3.143,1.957 l 0,5.895 -0.001,0 z"
         id="path4245" />
    </g>
    <g
       transform="matrix(0.18986644,0,0,0.18986646,-34.627369,3.8734394)"
       id="g4247">
      <path
         style="fill:#353535"
         d="m 7.764,61.726 c 0,1.781 1.746,3.24 3.883,3.24 l 121.924,0 c 2.136,0 3.883,-1.459 3.883,-3.24 l 0,-23.763 c 0,-1.781 -1.747,-3.24 -3.883,-3.24 l -121.924,0 c -2.137,0 -3.883,1.458 -3.883,3.24 l 0,23.763 z"
         id="path4249" />
      <path
         style="fill:#ce925d"
         d="m 45.356,34.726 -33.709,0 c -2.137,0 -3.883,1.458 -3.883,3.239 l 0,23.763 c 0,1.781 1.746,3.24 3.883,3.24 l 33.709,0 0,-30.242 0,0 z"
         id="path4251" />
      <path
         style="opacity:0.35"
         enable-background="new    "
         d="m 133.278,63.729 c 1.607,0 3.657,-1.244 3.657,-2.715 l 0,-6.801 c 0,1.473 -2.05,3.782 -3.657,3.782 l -121.043,0 c -1.607,0 -3.658,-2.309 -3.658,-3.782 l 0,6.801 c 0,1.474 2.051,2.715 3.658,2.715 l 121.043,0 z"
         id="path4253" />
      <path
         style="fill:#b2b2b2"
         d="m 7.873,49.645 c 0,6.774 0.311,12.263 0.693,12.263 0.383,0 0.383,-24.524 0,-24.524 -0.383,0 -0.693,5.49 -0.693,12.261"
         id="path4255" />
      <path
         style="fill:#7c7c7c"
         d="m 8.131,53.827 c 0.253,0 0.253,-9.062 0,-9.062 l 0.007,10e-4 c 0,0.558 -0.542,1.011 -1.209,1.011 l -0.552,0 c -0.666,0 -1.212,0.455 -1.212,1.012 l 0,5.011 c 0,0.557 0.546,1.012 1.212,1.012 l 0.551,0 c 0.667,0 1.209,0.452 1.209,1.012 l -0.006,0.003 0,0 z"
         id="path4257" />
      <g
         id="g4259">
        <g
           id="g4261">
          <path
             style="fill:#e0e0e0"
             d="m 112.387,50.167 0.516,-1.297 1.632,0 -2.728,6.853 -2.322,0 -2.781,-6.853 1.6,0 0.537,1.297 3.546,0 z m -1.784,4.55 0.021,0 1.402,-3.555 -2.837,0 1.414,3.555 z"
             id="path4263" />
          <path
             style="fill:#e0e0e0"
             d="m 104.618,50.167 0.515,-1.297 1.633,0 -2.728,6.853 -2.322,0 -2.781,-6.853 1.599,0 0.537,1.297 3.547,0 z m -1.785,4.55 0.022,0 1.401,-3.555 -2.838,0 1.415,3.555 z"
             id="path4267" />
          <path
             style="fill:#e0e0e0"
             d="m 94.406,48.867 0,6.853 -4.09,0 c -1.609,0 -2.417,-0.271 -2.417,-1.782 0,-0.784 0.173,-1.316 1.169,-1.514 l 0,-0.039 c -1.15,-0.11 -1.368,-0.741 -1.368,-1.606 0,-1.518 0.742,-1.91 2.477,-1.91 l 4.229,-0.002 0,0 z m -1.578,1.125 -2.157,0 c -0.939,0 -1.39,0.055 -1.39,0.895 0,0.749 0.198,0.969 1.127,0.969 l 2.418,0 0.002,-1.864 0,0 z m 0,2.86 -2.266,0 c -0.89,0 -1.084,0.228 -1.084,0.96 0,0.731 0.35,0.787 1.127,0.787 l 2.224,0 -10e-4,-1.747 0,0 z"
             id="path4269" />
          <path
             style="fill:#e0e0e0"
             d="m 82.824,49.471 0.033,0 c 0.273,-0.643 1.116,-0.658 1.785,-0.658 1.304,0 2.148,0.228 2.148,1.525 0,1.152 -0.723,1.472 -2.148,1.472 -0.701,0 -1.39,-0.009 -1.718,-0.549 l -0.044,0 0,0.622 c 0,0.777 0.077,1.05 1.226,1.05 0.603,0 1.085,-0.046 1.085,-0.666 l 1.384,0 c 0,1.397 -1.151,1.45 -2.466,1.45 -1.838,0 -2.605,-0.238 -2.605,-1.847 l 0,-3.005 1.38,0 -0.06,0.606 z m 2.584,0.868 c 0,-0.676 -0.326,-0.74 -1.259,-0.74 -0.735,0 -1.271,0.052 -1.271,0.74 0,0.667 0.589,0.686 1.271,0.686 0.702,0 1.259,0 1.259,-0.686 z"
             id="path4271" />
          <path
             style="fill:#e0e0e0"
             d="m 80.828,53.666 -0.723,0 0,1.087 -1.381,0 0,-1.087 -2.201,0 0,-0.876 2.201,0 0,-2.46 c -0.013,-0.439 -0.013,-0.642 -0.59,-0.642 -0.778,0 -0.69,0.513 -0.69,1.016 l -1.215,0 c -0.022,-1.452 0.417,-1.89 1.906,-1.89 1.511,0 1.972,0.292 1.972,1.507 l 0,2.467 0.723,0 -0.002,0.878 0,0 z"
             id="path4273" />
          <path
             style="fill:#e0e0e0"
             d="m 76.17,53.666 -0.723,0 0,1.087 -1.38,0 0,-1.087 -2.202,0 0,-0.876 2.202,0 0,-2.46 c -0.011,-0.439 -0.011,-0.642 -0.589,-0.642 -0.78,0 -0.691,0.513 -0.691,1.016 l -1.217,0 c -0.02,-1.452 0.418,-1.89 1.908,-1.89 1.508,0 1.969,0.292 1.969,1.507 l 0,2.467 0.723,0 0,0.878 0,0 z"
             id="path4275" />
          <path
             style="fill:#e0e0e0"
             d="m 65.697,50.394 c 0,-1.508 1.042,-1.581 2.683,-1.581 2.202,0 2.647,0.585 2.647,2.44 0,1.72 -0.326,2.466 -2.647,2.466 -2.368,0 -2.683,-0.576 -2.683,-2.669 l 3.954,0 c 0,-1.032 -0.033,-1.362 -1.27,-1.362 -0.768,0 -1.306,-0.009 -1.306,0.706 l -1.378,0 0,0 z m 1.38,1.389 c 0,0.987 0.175,1.063 1.306,1.063 1.195,0 1.271,-0.209 1.271,-1.063 l -2.577,0 z"
             id="path4277" />
          <path
             style="fill:#e0e0e0"
             d="m 63.317,53.666 0.03,-0.631 -0.055,0 c -0.274,0.531 -0.866,0.684 -1.534,0.684 -1.215,0 -1.511,-0.604 -1.511,-1.508 l 0,-0.384 1.292,0 0,0.247 c 0,0.484 0.055,0.768 0.701,0.768 0.821,0 1.062,-0.396 1.043,-1.014 l 0,-2.961 1.38,0 0,4.797 -1.346,0.002 0,0 z"
             id="path4279" />
          <path
             style="fill:#e0e0e0"
             d="m 56.12,48.674 c 0.32,-1.088 0.583,-1.936 2.189,-1.936 0.197,0 0.395,0.025 0.592,0.036 l 0,0.869 c -0.099,-0.009 -0.2,-0.027 -0.296,-0.027 -0.866,0 -0.997,0.695 -1.121,1.254 l 0.668,0 1.895,4.798 -1.427,0 -1.457,-4.085 -0.021,0 -1.118,4.085 -1.402,0 1.498,-4.994 z"
             id="path4281" />
        </g>
      </g>
      <path
         style="opacity:0.35;fill:#ffffff"
         enable-background="new    "
         d="m 11.53,43.658 c 0,1.082 1.406,1.955 3.139,1.955 l 116.276,0 c 1.732,0 3.141,-0.799 3.141,-1.879 l 0,-5.895 c 0,-1.081 -1.408,-2.033 -3.141,-2.033 l -116.274,0 c -1.732,0 -3.14,0.876 -3.14,1.957 l -0.001,5.895 0,0 z"
         id="path4283" />
    </g>
    <path
       style="fill:none;stroke:#c9c9c9;stroke-width:0.15844357"
       d="m -34.220109,25.410371 0,-7.601493 c 0,-0.112211 0.0737,-0.204866 0.16386,-0.204866 0.0902,0 0.16328,0.09266 0.16328,0.204866 l 0.17335,3.707522 c 0,0.112971 0.0742,0.205056 0.16386,0.205056 0.0896,0 0.16385,-0.09209 0.16385,-0.205056 l 0.17335,-2.8723 c 0,-0.11278 0.0739,-0.205055 0.16347,-0.205055 0.0902,0 0.16348,0.09228 0.16348,0.205055 l 0,2.256943"
       id="path4285" />
    <path
       style="fill:none;stroke:#c9c9c9;stroke-width:0.15844357"
       d="m -8.4595959,14.824747 0,-2.256943 c 0,-0.112781 0.07329,-0.205056 0.163475,-0.205056 0.08943,0 0.163285,0.09228 0.163285,0.205056 l 0.173348,2.8723 c 0,0.11297 0.07424,0.205056 0.163855,0.205056 0.08962,0 0.163855,-0.09209 0.163855,-0.205056 l 0.173158,-3.707522 c 0,-0.112211 0.07348,-0.204866 0.163475,-0.204866 0.09,0 0.163665,0.09266 0.163665,0.204866 l 0,7.601683"
       id="path4287" />
    <path
       style="fill:none;stroke:#c9c9c9;stroke-width:0.15844357"
       d="m -8.4810509,24.998361 0,2.256943 c 0,0.11278 0.07405,0.205245 0.163475,0.205245 0.09038,0 0.163665,-0.09247 0.163665,-0.205245 l 0.173538,-2.8723 c 0,-0.112781 0.07348,-0.205056 0.163475,-0.205056 0.09,0 0.163285,0.09228 0.163285,0.205056 l 0.173348,3.707712 c 0,0.112401 0.07424,0.204676 0.163665,0.204676 0.08981,0 0.163855,-0.09228 0.163855,-0.204676 l 0,-4.55015 c 0,-0.112021 0.110882,-0.204865 0.245877,-0.204865 l 0.278154,0"
       id="path4289" />
    <rect
       style="fill:#c9c9c9"
       width="0.6569379"
       x="-34.303459"
       y="24.598314"
       height="2.2831442"
       id="rect4291" />
    <rect
       style="fill:#c9c9c9"
       width="0.56010604"
       x="-7.691206"
       y="18.40411"
       height="2.2837138"
       id="rect4293" />
    <g
       transform="matrix(0.18986644,0,0,0.18986646,-34.627369,3.8734394)"
       id="g4295">
      <path
         style="fill:#353535"
         d="m 139.273,95.051 c 0,1.783 -1.747,3.24 -3.883,3.24 l -121.926,0 c -2.136,0 -3.883,-1.457 -3.883,-3.24 l 0,-23.76 c 0,-1.781 1.747,-3.239 3.883,-3.239 l 121.926,0 c 2.137,0 3.884,1.458 3.884,3.239 l -0.001,23.76 0,0 z"
         id="path4297" />
      <path
         style="fill:#ce925d"
         d="m 101.94,68.101 33.709,0 c 2.136,0 3.883,1.456 3.883,3.239 l 0,23.766 c 0,1.782 -1.747,3.24 -3.883,3.24 l -33.709,0 0,-30.245 z"
         id="path4299" />
      <path
         style="opacity:0.35"
         enable-background="new    "
         d="m 13.758,97.052 c -1.607,0 -3.658,-1.241 -3.658,-2.714 l 0,-6.801 c 0,1.474 2.051,3.783 3.658,3.783 l 121.041,0 c 1.608,0 3.659,-2.31 3.659,-3.783 l 0,6.802 c 0,1.474 -2.051,2.714 -3.659,2.714 l -121.041,-10e-4 0,0 z"
         id="path4301" />
      <path
         style="fill:#b2b2b2"
         d="m 139.164,82.97 c 0,6.774 -0.31,12.263 -0.691,12.263 -0.381,0 -0.382,-24.523 0,-24.523 0.382,0 0.691,5.489 0.691,12.26"
         id="path4303" />
      <path
         style="fill:#7c7c7c"
         d="m 138.906,87.151 c -0.254,0 -0.254,-9.062 0,-9.062 l -0.008,0.001 c 0,0.559 0.543,1.011 1.212,1.011 l 0.549,0 c 0.668,0 1.211,0.452 1.211,1.012 l 0,5.011 c 0,0.557 -0.543,1.013 -1.211,1.013 l -0.549,0 c -0.669,0 -1.212,0.452 -1.212,1.011 l 0.008,0.003 0,0 z"
         id="path4305" />
      <g
         id="g4307">
        <g
           id="g4309">
          <path
             style="fill:#e0e0e0"
             d="m 35.434,80.895 -0.515,1.296 -1.632,0 2.727,-6.852 2.322,0 2.781,6.852 -1.599,0 -0.536,-1.296 -3.548,0 z m 1.784,-4.55 -0.022,0 -1.401,3.556 2.836,0 -1.413,-3.556 z"
             id="path4311" />
          <path
             style="fill:#e0e0e0"
             d="m 43.203,80.895 -0.515,1.296 -1.629,0 2.724,-6.852 2.322,0 2.782,6.852 -1.599,0 -0.536,-1.296 -3.549,0 z m 1.784,-4.55 -0.021,0 -1.403,3.556 2.836,0 -1.412,-3.556 z"
             id="path4315" />
          <path
             style="fill:#e0e0e0"
             d="m 53.417,82.194 0,-6.853 4.088,0 c 1.61,0 2.417,0.272 2.417,1.782 0,0.783 -0.173,1.316 -1.169,1.516 l 0,0.038 c 1.15,0.11 1.369,0.741 1.369,1.606 0,1.518 -0.745,1.91 -2.476,1.91 l -4.229,0 0,0.001 z m 1.577,-3.985 2.264,0 c 0.891,0 1.085,-0.229 1.085,-0.959 0,-0.73 -0.351,-0.786 -1.128,-0.786 l -2.224,0 0.003,1.745 0,0 z m 0,2.86 2.158,0 c 0.938,0 1.389,-0.055 1.389,-0.895 0,-0.749 -0.197,-0.969 -1.125,-0.969 l -2.42,0 -0.002,1.864 0,0 z"
             id="path4317" />
          <path
             style="fill:#e0e0e0"
             d="m 64.998,81.59 -0.033,0 c -0.274,0.641 -1.117,0.657 -1.786,0.657 -1.303,0 -2.146,-0.229 -2.146,-1.526 0,-1.151 0.723,-1.471 2.146,-1.471 0.702,0 1.391,0.009 1.72,0.548 l 0.044,0 0,-0.622 c 0,-0.776 -0.077,-1.051 -1.227,-1.051 -0.603,0 -1.085,0.048 -1.085,0.667 l -1.381,0 c 0,-1.397 1.153,-1.45 2.464,-1.45 1.843,0 2.606,0.237 2.606,1.846 l 0,3.004 -1.382,0 0.06,-0.602 z m -2.585,-0.868 c 0,0.677 0.326,0.741 1.259,0.741 0.733,0 1.271,-0.053 1.271,-0.741 0,-0.667 -0.59,-0.685 -1.271,-0.685 -0.701,0 -1.259,0 -1.259,0.685 z"
             id="path4319" />
          <path
             style="fill:#e0e0e0"
             d="m 66.994,77.396 0.724,0 0,-1.088 1.38,0 0,1.088 2.201,0 0,0.877 -2.201,0 0,2.458 c 0.013,0.439 0.013,0.639 0.59,0.639 0.778,0 0.69,-0.51 0.69,-1.011 l 1.216,0 c 0.022,1.45 -0.417,1.889 -1.906,1.889 -1.511,0 -1.972,-0.292 -1.972,-1.509 l 0,-2.467 -0.724,0 0.002,-0.876 0,0 z"
             id="path4321" />
          <path
             style="fill:#e0e0e0"
             d="m 71.652,77.396 0.723,0 0,-1.088 1.38,0 0,1.088 2.202,0 0,0.877 -2.202,0 0,2.458 c 0.011,0.439 0.011,0.639 0.59,0.639 0.779,0 0.691,-0.51 0.691,-1.011 l 1.216,0 c 0.021,1.45 -0.417,1.889 -1.907,1.889 -1.509,0 -1.969,-0.292 -1.969,-1.509 l 0,-2.467 -0.724,0 0,-0.876 0,0 z"
             id="path4323" />
          <path
             style="fill:#e0e0e0"
             d="m 82.125,80.668 c 0,1.508 -1.042,1.58 -2.683,1.58 -2.202,0 -2.647,-0.584 -2.647,-2.439 0,-1.719 0.326,-2.465 2.647,-2.465 2.368,0 2.683,0.576 2.683,2.668 l -3.954,0 c 0,1.032 0.033,1.361 1.27,1.361 0.767,0 1.306,0.01 1.306,-0.705 l 1.378,0 0,0 z m -1.38,-1.389 c 0,-0.987 -0.175,-1.062 -1.306,-1.062 -1.194,0 -1.27,0.21 -1.27,1.062 l 2.576,0 z"
             id="path4325" />
          <path
             style="fill:#e0e0e0"
             d="m 84.505,77.396 -0.03,0.631 0.055,0 c 0.274,-0.53 0.866,-0.684 1.533,-0.684 1.216,0 1.512,0.604 1.512,1.508 l 0,0.384 -1.292,0 0,-0.246 c 0,-0.484 -0.056,-0.769 -0.702,-0.769 -0.821,0 -1.062,0.396 -1.042,1.015 l 0,2.961 -1.381,0 0,-4.797 1.347,-0.003 0,0 z"
             id="path4327" />
          <path
             style="fill:#e0e0e0"
             d="m 91.702,82.385 c -0.32,1.088 -0.584,1.936 -2.19,1.936 -0.197,0 -0.394,-0.025 -0.591,-0.037 l 0,-0.868 c 0.099,0.009 0.201,0.028 0.295,0.028 0.865,0 0.997,-0.695 1.12,-1.255 l -0.667,0 -1.895,-4.798 1.427,0 1.456,4.085 0.02,0 1.119,-4.085 1.402,0 -1.496,4.994 z"
             id="path4329" />
        </g>
      </g>
      <path
         style="opacity:0.35;fill:#ffffff"
         enable-background="new    "
         d="m 135.506,76.983 c 0,1.08 -1.406,1.956 -3.141,1.956 l -116.276,0 c -1.732,0 -3.14,-0.8 -3.14,-1.88 l 0,-5.895 c 0,-1.08 1.406,-2.033 3.14,-2.033 l 116.275,0 c 1.735,0 3.143,0.877 3.143,1.957 l 0,5.895 -0.001,0 z"
         id="path4331" />
    </g>
    <path
       style="fill:#353535"
       d="m -33.153249,28.14255 c 0,0.337962 0.33151,0.615167 0.73726,0.615167 l 23.1492711,0 c 0.405554,0 0.737251,-0.277205 0.737251,-0.615167 l 0,-4.511797 c 0,-0.338152 -0.331697,-0.615167 -0.737251,-0.615167 l -23.1492711,0 c -0.40575,0 -0.73726,0.277015 -0.73726,0.615167 l 0,4.511797 z"
       id="path4335" />
    <path
       style="fill:#ce925d"
       d="m -26.015789,23.016155 -6.4002,0 c -0.40575,0 -0.73726,0.276826 -0.73726,0.614978 l 0,4.511986 c 0,0.338152 0.33151,0.614978 0.73726,0.614978 l 6.4002,0 0,-5.741942 0,0 z"
       id="path4337" />
    <path
       style="opacity:0.35"
       enable-background="new    "
       d="m -9.3223489,28.522852 c 0.305115,0 0.694341,-0.236194 0.694341,-0.515487 l 0,-1.291472 c 0,0.279863 -0.389226,0.718075 -0.694341,0.718075 l -22.9820001,0 c -0.30512,0 -0.69454,-0.438402 -0.69454,-0.718075 l 0,1.291472 c 0,0.279863 0.38942,0.515487 0.69454,0.515487 l 22.9820001,0 z"
       id="path4339" />
    <path
       style="fill:#b2b2b2"
       d="m -33.132549,25.848773 c 0,1.285966 0.059,2.328522 0.13158,2.328522 0.0727,0 0.0727,-4.656475 0,-4.656475 -0.0727,-1.52e-4 -0.13158,1.042177 -0.13158,2.327953"
       id="path4341" />
    <path
       style="fill:#7c7c7c"
       d="m -33.083569,26.642605 c 0.048,0 0.048,-1.72057 0,-1.72057 l 10e-4,1.52e-4 c 0,0.106135 -0.10291,0.191955 -0.22955,0.191955 l -0.1048,0 c -0.12645,0 -0.23012,0.08639 -0.23012,0.192145 l 0,0.95161 c 0,0.105756 0.10367,0.192145 0.23012,0.192145 l 0.10461,0 c 0.12664,0 0.22955,0.08582 0.22955,0.192335 l -10e-4,1.52e-4 0,0 z"
       id="path4343" />
    <path
       style="fill:#e0e0e0"
       d="m -13.288849,25.947693 0.09797,-0.246256 0.309862,0 -0.517956,1.301154 -0.44087,0 -0.528019,-1.301154 0.303787,0 0.101958,0.246256 0.673267,0 z m -0.338722,0.864083 0.004,0 0.266192,-0.674976 -0.538651,0 0.268471,0.674976 z"
       id="path4349" />
    <path
       style="fill:#e0e0e0"
       d="m -14.763922,25.947693 0.09778,-0.246256 0.310052,0 -0.517956,1.301154 -0.440869,0 -0.528019,-1.301154 0.303596,0 0.101959,0.246256 0.673456,0 z m -0.338912,0.864083 0.0042,0 0.266003,-0.674976 -0.538841,0 0.268661,0.674976 z"
       id="path4353" />
    <path
       style="fill:#e0e0e0"
       d="m -16.702838,25.701057 0,1.300965 -0.776554,0 c -0.305495,0 -0.458907,-0.05145 -0.458907,-0.338152 0,-0.148856 0.03285,-0.249865 0.221954,-0.287648 l 0,-0.0074 c -0.218347,-0.02089 -0.259738,-0.140691 -0.259738,-0.304926 0,-0.288217 0.140881,-0.362645 0.4703,-0.362645 l 0.802945,0 0,-1.52e-4 z m -0.29961,0.2136 -0.409541,0 c -0.178285,0 -0.263915,0.01043 -0.263915,0.16993 0,0.14221 0.03759,0.183981 0.21398,0.183981 l 0.459097,0 3.04e-4,-0.353911 0,0 z m 0,0.543018 -0.430237,0 c -0.168981,0 -0.205815,0.04348 -0.205815,0.182272 0,0.138792 0.06645,0.149235 0.213979,0.149235 l 0.422263,0 -1.52e-4,-0.331507 0,0 z"
       id="path4355" />
    <path
       style="fill:#e0e0e0"
       d="m -18.901872,25.815736 0.0063,0 c 0.05183,-0.122084 0.211891,-0.124932 0.338911,-0.124932 0.247586,0 0.407833,0.04329 0.407833,0.289546 0,0.218537 -0.137273,0.279484 -0.407833,0.279484 -0.133096,0 -0.263914,-0.0017 -0.32619,-0.104427 l -0.0084,0 0,0.118287 c 0,0.147336 0.01463,0.19936 0.232776,0.19936 0.114489,0 0.206005,-0.0087 0.206005,-0.126451 l 0.262775,0 c 0,0.265243 -0.218536,0.275306 -0.468211,0.275306 -0.348974,0 -0.494602,-0.04519 -0.494602,-0.350683 l 0,-0.570549 0.262016,0 -0.01139,0.115059 z m 0.490615,0.164614 c 0,-0.128349 -0.0619,-0.140311 -0.239041,-0.140311 -0.139552,0 -0.241321,0.0099 -0.241321,0.140311 0,0.126831 0.111832,0.130249 0.241321,0.130249 0.133286,3.04e-4 0.239041,3.04e-4 0.239041,-0.130249 z"
       id="path4357" />
    <path
       style="fill:#e0e0e0"
       d="m -19.280845,26.612226 -0.137273,0 0,0.206385 -0.262201,0 0,-0.206385 -0.4179,0 0,-0.166513 0.4179,0 0,-0.466881 c -0.002,-0.08335 -0.002,-0.122085 -0.11203,-0.122085 -0.14771,0 -0.131,0.09759 -0.131,0.192905 l -0.23069,0 c -0.004,-0.275497 0.0792,-0.358848 0.36188,-0.358848 0.286892,0 0.37442,0.05544 0.37442,0.286129 l 0,0.4684 0.137274,0 -3.04e-4,0.166893 0,0 z"
       id="path4359" />
    <path
       style="fill:#e0e0e0"
       d="m -20.165239,26.612226 -0.13728,0 0,0.206385 -0.26201,0 0,-0.206385 -0.41809,0 0,-0.166513 0.41809,0 0,-0.466881 c -0.002,-0.08335 -0.002,-0.122085 -0.11183,-0.122085 -0.1481,0 -0.1312,0.09759 -0.1312,0.192905 l -0.23107,0 c -0.004,-0.275497 0.0794,-0.358848 0.36227,-0.358848 0.28631,0 0.37384,0.05544 0.37384,0.286129 l 0,0.4684 0.13728,0 0,0.166893 0,0 z"
       id="path4361" />
    <path
       style="fill:#e0e0e0"
       d="m -22.153709,25.990793 c 0,-0.286319 0.19784,-0.299989 0.50941,-0.299989 0.41808,0 0.50257,0.111072 0.50257,0.463084 0,0.326761 -0.0619,0.468401 -0.50257,0.468401 -0.44961,0 -0.50941,-0.109363 -0.50941,-0.506943 l 0.75073,0 c 0,-0.195753 -0.006,-0.258409 -0.24113,-0.258409 -0.14582,0 -0.24797,-0.0019 -0.24797,0.133856 l -0.26163,0 0,0 z m 0.26201,0.263914 c 0,0.187209 0.0332,0.201639 0.24797,0.201639 0.22689,0 0.24132,-0.03968 0.24132,-0.201639 l -0.48929,0 z"
       id="path4363" />
    <path
       style="fill:#e0e0e0"
       d="m -22.605599,26.612226 0.006,-0.119806 -0.0105,0 c -0.052,0.100819 -0.16443,0.129869 -0.29126,0.129869 -0.23068,0 -0.28688,-0.114679 -0.28688,-0.286319 l 0,-0.0731 0.2453,0 0,0.04671 c 0,0.0919 0.0104,0.145817 0.1331,0.145817 0.15588,0 0.20164,-0.07519 0.19803,-0.192524 l 0,-0.562195 0.26202,0 0,0.91079 -0.25556,7.59e-4 0,0 z"
       id="path4365" />
    <path
       style="fill:#e0e0e0"
       d="m -23.972069,25.664413 c 0.0608,-0.206575 0.1107,-0.367582 0.41562,-0.367582 0.0374,0 0.075,0.0047 0.1124,0.0068 l 0,0.164804 c -0.0188,-0.0017 -0.038,-0.0051 -0.0562,-0.0051 -0.16442,0 -0.18929,0.131958 -0.21284,0.238093 l 0.12683,0 0.3598,0.911169 -0.27094,0 -0.27663,-0.775794 -0.004,0 -0.21227,0.775794 -0.26619,0 0.28442,-0.948193 z"
       id="path4367" />
    <path
       style="opacity:0.35;fill:#ffffff"
       enable-background="new    "
       d="m -32.438209,24.711853 c 0,0.205435 0.26695,0.371189 0.59599,0.371189 l 22.0769111,0 c 0.328849,0 0.596371,-0.151704 0.596371,-0.356949 l 0,-1.119263 c 0,-0.205056 -0.267332,-0.385999 -0.596371,-0.385999 l -22.0765311,0 c -0.32885,0 -0.59618,0.166513 -0.59618,0.371569 l -1.5e-4,1.119453 0,0 z"
       id="path4369" />
    <g
       transform="matrix(0.18986644,0,0,0.18986646,-34.627369,3.8734394)"
       id="g4371">
      <path
         style="fill:#1a1a1a"
         d="m 7.357,0.109 1.79,1.16 c 0,0 1.276,1.206 2.389,2.492 0.663,0.767 1.218,3.466 2.036,4.151 0.821,0.683 1.993,0.831 2.987,0.831 0.277,0 23.058,0 23.335,0 0.995,0 2.164,-0.145 2.986,-0.831 0.82,-0.685 1.378,-3.384 2.039,-4.151 1.111,-1.286 2.389,-2.492 2.389,-2.492 l 1.79,-1.16 -41.741,0 z"
         id="path4373" />
      <path
         style="opacity:0.2;fill:#ffffff"
         enable-background="new    "
         d="m 9.941,0.984 0.466,0.145 c 0,0 0,0.539 1.037,1.111 0.623,0.342 1.138,0.492 1.904,0.798 0.768,0.305 1.858,0.37 2.791,0.37 0.258,0 23.918,0 24.181,0 0.932,0 2.021,-0.065 2.787,-0.37 0.768,-0.306 1.286,-0.456 1.904,-0.798 1.041,-0.573 1.04,-1.111 1.04,-1.111 L 46.509,0.985 9.941,0.984 Z"
         id="path4375" />
    </g>
    <g
       transform="matrix(0.18986644,0,0,0.18986646,-34.627369,3.8734394)"
       id="g4377">
      <path
         style="fill:#1a1a1a"
         d="m 98.374,0.109 1.79,1.16 c 0,0 1.276,1.206 2.389,2.492 0.663,0.767 1.219,3.466 2.036,4.151 0.82,0.683 1.993,0.831 2.987,0.831 0.278,0 23.058,0 23.334,0 0.996,0 2.165,-0.145 2.988,-0.831 0.818,-0.685 1.376,-3.384 2.036,-4.151 1.112,-1.286 2.39,-2.492 2.39,-2.492 l 1.79,-1.16 -41.74,0 z"
         id="path4379" />
      <path
         style="opacity:0.2;fill:#ffffff"
         enable-background="new    "
         d="m 100.958,0.984 0.468,0.145 c 0,0 0,0.539 1.036,1.111 0.623,0.342 1.138,0.492 1.904,0.798 0.771,0.305 1.858,0.37 2.791,0.37 0.258,0 23.919,0 24.182,0 0.932,0 2.021,-0.065 2.788,-0.37 0.768,-0.306 1.284,-0.456 1.905,-0.798 1.039,-0.573 1.038,-1.111 1.038,-1.111 l 0.458,-0.144 -36.57,-0.001 z"
         id="path4381" />
    </g>
    <g
       transform="matrix(0.18986644,0,0,0.18986646,-34.627369,3.8734394)"
       id="g4383">
      <path
         style="fill:#1a1a1a"
         d="m 7.357,132.767 1.79,-1.161 c 0,0 1.276,-1.205 2.389,-2.492 0.663,-0.766 1.218,-3.466 2.036,-4.15 0.821,-0.685 1.993,-0.83 2.987,-0.83 0.277,0 23.058,0 23.335,0 0.995,0 2.164,0.143 2.986,0.83 0.82,0.685 1.378,3.385 2.039,4.15 1.111,1.287 2.389,2.492 2.389,2.492 l 1.79,1.161 -41.741,0 z"
         id="path4385" />
      <path
         d="m 9.941,131.893 0.466,-0.145 c 0,0 0,-0.539 1.037,-1.111 0.623,-0.344 1.138,-0.492 1.904,-0.798 0.768,-0.306 1.858,-0.37 2.791,-0.37 0.258,0 23.918,0 24.181,0 0.932,0 2.021,0.064 2.787,0.37 0.768,0.304 1.286,0.454 1.904,0.798 1.041,0.572 1.04,1.111 1.04,1.111 l 0.458,0.141 -36.568,0.004 z"
         id="path4387" />
    </g>
    <g
       transform="matrix(0.18986644,0,0,0.18986646,-34.627369,3.8734394)"
       id="g4389">
      <path
         style="fill:#1a1a1a"
         d="m 98.374,132.767 1.79,-1.161 c 0,0 1.276,-1.205 2.389,-2.492 0.663,-0.766 1.219,-3.466 2.036,-4.15 0.82,-0.685 1.993,-0.83 2.987,-0.83 0.278,0 23.058,0 23.334,0 0.996,0 2.165,0.143 2.988,0.83 0.819,0.686 1.376,3.385 2.036,4.15 1.112,1.287 2.39,2.492 2.39,2.492 l 1.79,1.161 -41.74,0 z"
         id="path4391" />
      <path
         d="m 100.958,131.893 0.468,-0.145 c 0,0 0,-0.539 1.036,-1.111 0.623,-0.344 1.138,-0.492 1.904,-0.798 0.771,-0.306 1.858,-0.37 2.791,-0.37 0.258,0 23.919,0 24.182,0 0.932,0 2.021,0.064 2.788,0.37 0.768,0.304 1.284,0.454 1.905,0.798 1.039,0.572 1.038,1.111 1.038,1.111 l 0.458,0.141 -36.57,0.004 z"
         id="path4393" />
    </g>
  </g>
  </g>
</svg>