<?xml version="1.0" encoding="UTF-8" standalone="no"?>
<svg
   xmlns:dc="http://purl.org/dc/elements/1.1/"
   xmlns:cc="http://creativecommons.org/ns#"
   xmlns:rdf="http://www.w3.org/1999/02/22-rdf-syntax-ns#"
   xmlns:svg="http://www.w3.org/2000/svg"
   xmlns="http://www.w3.org/2000/svg"
   width="2.3202105in"
   x="0px"
   version="1.1"
   y="0px"
   height="2.4195213in"
   viewBox="0 0 167.05514 174.20554"
   id="svg4192">
    <path
     style="fill:#1a1a1a"
     d="m 161.42704,171.95133 c 0,1.33049 -1.19771,2.25422 -2.24982,2.25422 l -156.9252028,0 C 0.7608906,174.20555 1.3199966e-8,173.44977 1.3199966e-8,171.95133 l 0,-169.7010534 C 1.32e-8,1.0628127 0.92839601,-3.12003e-7 2.2520172,-3.12003e-7 l 156.9252028,0 c 1.21852,0 2.24982,0.894862292003 2.24982,2.250276912003 l 0,82.9623944 0,86.738659 z"
     id="path4199" />
    <path
     style="fill:none;stroke:#c9c9c9;stroke-width:1.00018644"
     d="m 2.3461706,62.110266 0,-52.5318283 c 0,-0.7741477 0.4247849,-1.417084 0.9448181,-1.417084 0.5200331,0 0.9415336,0.6416242 0.9415336,1.417084 L 5.2320808,35.200103 c 0,0.779397 0.4280693,1.417084 0.9448181,1.417084 0.5167487,0 0.944818,-0.637687 0.944818,-1.417084 L 8.1212754,15.350431 c 0,-0.778084 0.4258797,-1.417084 0.9426285,-1.417084 0.5200331,0 0.9426281,0.639 0.9426281,1.417084 l 0,15.597108"
     id="path4201" />
    <path
     style="fill:none;stroke:#c9c9c9;stroke-width:1.00018644"
     d="m 158.43275,13.607942 0,18.967932 c 0,0.779396 0.63827,1.417084 1.41777,1.417084 l 1.60389,0"
     id="path4203" />
    <rect
     style="fill:#c9c9c9"
     width="3.7880309"
     x="1.8655504"
     y="56.498348"
     height="15.77818"
     id="rect4205" />
    <rect
     style="fill:#c9c9c9"
     width="3.2296796"
     x="155.31693"
     y="13.691918"
     height="15.783429"
     id="rect4207" />
    <g
     transform="matrix(1.0948066,0,0,1.3121148,-0.0021896,-3.12003e-7)"
     id="g4209">
        <path
       style="fill:#353535"
       d="m 139.273,28.955 c 0,1.784 -1.747,3.24 -3.883,3.24 l -121.926,0 c -2.136,0 -3.883,-1.456 -3.883,-3.24 l 0,-23.76 c 0,-1.781 1.747,-3.239 3.883,-3.239 l 121.926,0 c 2.137,0 3.884,1.458 3.884,3.239 l -0.001,23.76 0,0 z"
       id="path4211" />
        <path
       style="fill:#ce925d"
       d="m 101.94,2.005 33.709,0 c 2.136,0 3.883,1.457 3.883,3.24 l 0,23.766 c 0,1.782 -1.747,3.24 -3.883,3.24 l -33.709,0 0,-30.246 z"
       id="path4213" />
        <path
       style="opacity:0.35"
       enable-background="new    "
       d="m 13.758,30.957 c -1.607,0 -3.658,-1.242 -3.658,-2.714 l 0,-6.801 c 0,1.474 2.051,3.784 3.658,3.784 l 121.041,0 c 1.608,0 3.659,-2.31 3.659,-3.784 l 0,6.802 c 0,1.474 -2.051,2.714 -3.659,2.714 l -121.041,-10e-4 0,0 z"
       id="path4215" />
        <path
       style="fill:#b2b2b2"
       d="m 139.164,16.875 c 0,6.774 -0.31,12.263 -0.691,12.263 -0.381,0 -0.382,-24.524 0,-24.524 0.382,0 0.691,5.489 0.691,12.261"
       id="path4217" />
        <path
       style="fill:#7c7c7c"
       d="m 138.906,21.055 c -0.254,0 -0.254,-9.061 0,-9.061 l -0.008,0 c 0,0.559 0.543,1.011 1.212,1.011 l 0.549,0 c 0.668,0 1.211,0.453 1.211,1.012 l 0,5.011 c 0,0.557 -0.543,1.012 -1.211,1.012 l -0.549,0 c -0.669,0 -1.212,0.452 -1.212,1.01 l 0.008,0.005 0,0 z"
       id="path4219" />
        <g
       id="g4221">
            <g
         id="g4223">
                <path
           style="fill:#e0e0e0"
           d="m 35.434,14.8 -0.515,1.295 -1.632,0 2.727,-6.852 2.322,0 2.781,6.852 -1.599,0 -0.536,-1.295 -3.548,0 z m 1.784,-4.55 -0.022,0 -1.401,3.555 2.836,0 -1.413,-3.555 z"
           id="path4225" />
                <path
           style="fill:#e0e0e0"
           d="m 43.203,14.8 -0.515,1.295 -1.629,0 2.724,-6.852 2.322,0 2.782,6.852 -1.599,0 -0.536,-1.295 -3.549,0 z m 1.784,-4.55 -0.021,0 -1.403,3.555 2.836,0 -1.412,-3.555 z"
           id="path4229" />
                <path
           style="fill:#e0e0e0"
           d="m 53.417,16.098 0,-6.852 4.088,0 c 1.61,0 2.417,0.272 2.417,1.783 0,0.783 -0.173,1.316 -1.169,1.515 l 0,0.038 c 1.15,0.11 1.369,0.741 1.369,1.606 0,1.517 -0.745,1.911 -2.476,1.911 l -4.229,-0.001 0,0 z m 1.577,-3.984 2.264,0 c 0.891,0 1.085,-0.229 1.085,-0.959 0,-0.731 -0.351,-0.786 -1.128,-0.786 l -2.224,0 0.003,1.745 0,0 z m 0,2.86 2.158,0 c 0.938,0 1.389,-0.055 1.389,-0.896 0,-0.749 -0.197,-0.968 -1.125,-0.968 l -2.42,0 -0.002,1.864 0,0 z"
           id="path4231" />
                <path
           style="fill:#e0e0e0"
           d="m 64.998,15.494 -0.033,0 c -0.274,0.642 -1.117,0.658 -1.786,0.658 -1.303,0 -2.146,-0.229 -2.146,-1.526 0,-1.151 0.723,-1.471 2.146,-1.471 0.702,0 1.391,0.009 1.72,0.548 l 0.044,0 0,-0.622 c 0,-0.777 -0.077,-1.051 -1.227,-1.051 -0.603,0 -1.085,0.048 -1.085,0.667 l -1.381,0 c 0,-1.398 1.153,-1.451 2.464,-1.451 1.843,0 2.606,0.238 2.606,1.846 l 0,3.004 -1.382,0 0.06,-0.602 z m -2.585,-0.868 c 0,0.676 0.326,0.741 1.259,0.741 0.733,0 1.271,-0.053 1.271,-0.741 0,-0.667 -0.59,-0.685 -1.271,-0.685 -0.701,0 -1.259,0 -1.259,0.685 z"
           id="path4233" />
                <path
           style="fill:#e0e0e0"
           d="m 66.994,11.3 0.724,0 0,-1.088 1.38,0 0,1.088 2.201,0 0,0.877 -2.201,0 0,2.458 c 0.013,0.439 0.013,0.639 0.59,0.639 0.778,0 0.69,-0.511 0.69,-1.011 l 1.216,0 c 0.022,1.45 -0.417,1.889 -1.906,1.889 -1.511,0 -1.972,-0.292 -1.972,-1.508 l 0,-2.467 -0.724,0 0.002,-0.877 0,0 z"
           id="path4235" />
                <path
           style="fill:#e0e0e0"
           d="m 71.652,11.3 0.723,0 0,-1.088 1.38,0 0,1.088 2.202,0 0,0.877 -2.202,0 0,2.458 c 0.011,0.439 0.011,0.639 0.59,0.639 0.779,0 0.691,-0.511 0.691,-1.011 l 1.216,0 c 0.021,1.45 -0.417,1.889 -1.907,1.889 -1.509,0 -1.969,-0.292 -1.969,-1.508 l 0,-2.467 -0.724,0 0,-0.877 0,0 z"
           id="path4237" />
                <path
           style="fill:#e0e0e0"
           d="m 82.125,14.572 c 0,1.508 -1.042,1.581 -2.683,1.581 -2.202,0 -2.647,-0.585 -2.647,-2.439 0,-1.719 0.326,-2.465 2.647,-2.465 2.368,0 2.683,0.576 2.683,2.668 l -3.954,0 c 0,1.032 0.033,1.362 1.27,1.362 0.767,0 1.306,0.009 1.306,-0.706 l 1.378,-0.001 0,0 z m -1.38,-1.389 c 0,-0.987 -0.175,-1.062 -1.306,-1.062 -1.194,0 -1.27,0.21 -1.27,1.062 l 2.576,0 z"
           id="path4239" />
                <path
           style="fill:#e0e0e0"
           d="m 84.505,11.3 -0.03,0.631 0.055,0 c 0.274,-0.53 0.866,-0.684 1.533,-0.684 1.216,0 1.512,0.604 1.512,1.508 l 0,0.384 -1.292,0 0,-0.247 c 0,-0.484 -0.056,-0.768 -0.702,-0.768 -0.821,0 -1.062,0.396 -1.042,1.015 l 0,2.961 -1.381,0 0,-4.798 1.347,-0.002 0,0 z"
           id="path4241" />
                <path
           style="fill:#e0e0e0"
           d="m 91.702,16.29 c -0.32,1.088 -0.584,1.935 -2.19,1.935 -0.197,0 -0.394,-0.025 -0.591,-0.037 l 0,-0.868 c 0.099,0.009 0.201,0.028 0.295,0.028 0.865,0 0.997,-0.695 1.12,-1.254 l -0.667,0 -1.895,-4.798 1.427,0 1.456,4.085 0.02,0 1.119,-4.085 1.402,0 -1.496,4.994 z"
           id="path4243" />
            </g>
        </g>
        <path
       style="opacity:0.35;fill:#ffffff"
       enable-background="new    "
       d="m 135.506,10.888 c 0,1.08 -1.406,1.956 -3.141,1.956 l -116.276,0 c -1.732,0 -3.14,-0.8 -3.14,-1.88 l 0,-5.895 c 0,-1.081 1.406,-2.033 3.14,-2.033 l 116.275,0 c 1.735,0 3.143,0.876 3.143,1.957 l 0,5.895 -0.001,0 z"
       id="path4245" />
    </g>
    <g
     transform="matrix(1.0948066,0,0,1.3121148,-0.0021896,-3.12003e-7)"
     id="g4247">
        <path
       style="fill:#353535"
       d="m 7.764,61.726 c 0,1.781 1.746,3.24 3.883,3.24 l 121.924,0 c 2.136,0 3.883,-1.459 3.883,-3.24 l 0,-23.763 c 0,-1.781 -1.747,-3.24 -3.883,-3.24 l -121.924,0 c -2.137,0 -3.883,1.458 -3.883,3.24 l 0,23.763 z"
       id="path4249" />
        <path
       style="fill:#ce925d"
       d="m 45.356,34.726 -33.709,0 c -2.137,0 -3.883,1.458 -3.883,3.239 l 0,23.763 c 0,1.781 1.746,3.24 3.883,3.24 l 33.709,0 0,-30.242 0,0 z"
       id="path4251" />
        <path
       style="opacity:0.35"
       enable-background="new    "
       d="m 133.278,63.729 c 1.607,0 3.657,-1.244 3.657,-2.715 l 0,-6.801 c 0,1.473 -2.05,3.782 -3.657,3.782 l -121.043,0 c -1.607,0 -3.658,-2.309 -3.658,-3.782 l 0,6.801 c 0,1.474 2.051,2.715 3.658,2.715 l 121.043,0 z"
       id="path4253" />
        <path
       style="fill:#b2b2b2"
       d="m 7.873,49.645 c 0,6.774 0.311,12.263 0.693,12.263 0.383,0 0.383,-24.524 0,-24.524 -0.383,0 -0.693,5.49 -0.693,12.261"
       id="path4255" />
        <path
       style="fill:#7c7c7c"
       d="m 8.131,53.827 c 0.253,0 0.253,-9.062 0,-9.062 l 0.007,10e-4 c 0,0.558 -0.542,1.011 -1.209,1.011 l -0.552,0 c -0.666,0 -1.212,0.455 -1.212,1.012 l 0,5.011 c 0,0.557 0.546,1.012 1.212,1.012 l 0.551,0 c 0.667,0 1.209,0.452 1.209,1.012 l -0.006,0.003 0,0 z"
       id="path4257" />
        <g
       id="g4259">
            <g
         id="g4261">
                <path
           style="fill:#e0e0e0"
           d="m 112.387,50.167 0.516,-1.297 1.632,0 -2.728,6.853 -2.322,0 -2.781,-6.853 1.6,0 0.537,1.297 3.546,0 z m -1.784,4.55 0.021,0 1.402,-3.555 -2.837,0 1.414,3.555 z"
           id="path4263" />
                <path
           style="fill:#e0e0e0"
           d="m 104.618,50.167 0.515,-1.297 1.633,0 -2.728,6.853 -2.322,0 -2.781,-6.853 1.599,0 0.537,1.297 3.547,0 z m -1.785,4.55 0.022,0 1.401,-3.555 -2.838,0 1.415,3.555 z"
           id="path4267" />
                <path
           style="fill:#e0e0e0"
           d="m 94.406,48.867 0,6.853 -4.09,0 c -1.609,0 -2.417,-0.271 -2.417,-1.782 0,-0.784 0.173,-1.316 1.169,-1.514 l 0,-0.039 c -1.15,-0.11 -1.368,-0.741 -1.368,-1.606 0,-1.518 0.742,-1.91 2.477,-1.91 l 4.229,-0.002 0,0 z m -1.578,1.125 -2.157,0 c -0.939,0 -1.39,0.055 -1.39,0.895 0,0.749 0.198,0.969 1.127,0.969 l 2.418,0 0.002,-1.864 0,0 z m 0,2.86 -2.266,0 c -0.89,0 -1.084,0.228 -1.084,0.96 0,0.731 0.35,0.787 1.127,0.787 l 2.224,0 -10e-4,-1.747 0,0 z"
           id="path4269" />
                <path
           style="fill:#e0e0e0"
           d="m 82.824,49.471 0.033,0 c 0.273,-0.643 1.116,-0.658 1.785,-0.658 1.304,0 2.148,0.228 2.148,1.525 0,1.152 -0.723,1.472 -2.148,1.472 -0.701,0 -1.39,-0.009 -1.718,-0.549 l -0.044,0 0,0.622 c 0,0.777 0.077,1.05 1.226,1.05 0.603,0 1.085,-0.046 1.085,-0.666 l 1.384,0 c 0,1.397 -1.151,1.45 -2.466,1.45 -1.838,0 -2.605,-0.238 -2.605,-1.847 l 0,-3.005 1.38,0 -0.06,0.606 z m 2.584,0.868 c 0,-0.676 -0.326,-0.74 -1.259,-0.74 -0.735,0 -1.271,0.052 -1.271,0.74 0,0.667 0.589,0.686 1.271,0.686 0.702,0 1.259,0 1.259,-0.686 z"
           id="path4271" />
                <path
           style="fill:#e0e0e0"
           d="m 80.828,53.666 -0.723,0 0,1.087 -1.381,0 0,-1.087 -2.201,0 0,-0.876 2.201,0 0,-2.46 c -0.013,-0.439 -0.013,-0.642 -0.59,-0.642 -0.778,0 -0.69,0.513 -0.69,1.016 l -1.215,0 c -0.022,-1.452 0.417,-1.89 1.906,-1.89 1.511,0 1.972,0.292 1.972,1.507 l 0,2.467 0.723,0 -0.002,0.878 0,0 z"
           id="path4273" />
                <path
           style="fill:#e0e0e0"
           d="m 76.17,53.666 -0.723,0 0,1.087 -1.38,0 0,-1.087 -2.202,0 0,-0.876 2.202,0 0,-2.46 c -0.011,-0.439 -0.011,-0.642 -0.589,-0.642 -0.78,0 -0.691,0.513 -0.691,1.016 l -1.217,0 c -0.02,-1.452 0.418,-1.89 1.908,-1.89 1.508,0 1.969,0.292 1.969,1.507 l 0,2.467 0.723,0 0,0.878 0,0 z"
           id="path4275" />
                <path
           style="fill:#e0e0e0"
           d="m 65.697,50.394 c 0,-1.508 1.042,-1.581 2.683,-1.581 2.202,0 2.647,0.585 2.647,2.44 0,1.72 -0.326,2.466 -2.647,2.466 -2.368,0 -2.683,-0.576 -2.683,-2.669 l 3.954,0 c 0,-1.032 -0.033,-1.362 -1.27,-1.362 -0.768,0 -1.306,-0.009 -1.306,0.706 l -1.378,0 0,0 z m 1.38,1.389 c 0,0.987 0.175,1.063 1.306,1.063 1.195,0 1.271,-0.209 1.271,-1.063 l -2.577,0 z"
           id="path4277" />
                <path
           style="fill:#e0e0e0"
           d="m 63.317,53.666 0.03,-0.631 -0.055,0 c -0.274,0.531 -0.866,0.684 -1.534,0.684 -1.215,0 -1.511,-0.604 -1.511,-1.508 l 0,-0.384 1.292,0 0,0.247 c 0,0.484 0.055,0.768 0.701,0.768 0.821,0 1.062,-0.396 1.043,-1.014 l 0,-2.961 1.38,0 0,4.797 -1.346,0.002 0,0 z"
           id="path4279" />
                <path
           style="fill:#e0e0e0"
           d="m 56.12,48.674 c 0.32,-1.088 0.583,-1.936 2.189,-1.936 0.197,0 0.395,0.025 0.592,0.036 l 0,0.869 c -0.099,-0.009 -0.2,-0.027 -0.296,-0.027 -0.866,0 -0.997,0.695 -1.121,1.254 l 0.668,0 1.895,4.798 -1.427,0 -1.457,-4.085 -0.021,0 -1.118,4.085 -1.402,0 1.498,-4.994 z"
           id="path4281" />
            </g>
        </g>
        <path
       style="opacity:0.35;fill:#ffffff"
       enable-background="new    "
       d="m 11.53,43.658 c 0,1.082 1.406,1.955 3.139,1.955 l 116.276,0 c 1.732,0 3.141,-0.799 3.141,-1.879 l 0,-5.895 c 0,-1.081 -1.408,-2.033 -3.141,-2.033 l -116.274,0 c -1.732,0 -3.14,0.876 -3.14,1.957 l -0.001,5.895 0,0 z"
       id="path4283" />
    </g>
    <path
     style="fill:none;stroke:#c9c9c9;stroke-width:1.00018644"
     d="m 2.3461706,148.83581 0,-52.531832 c 0,-0.77546 0.4247849,-1.415772 0.9448181,-1.415772 0.5200331,0 0.9415336,0.640312 0.9415336,1.415772 l 0.9995585,25.621662 c 0,0.78071 0.4280693,1.41709 0.9448181,1.41709 0.5167487,0 0.944818,-0.63638 0.944818,-1.41709 l 0.9995585,-19.84967 c 0,-0.7794 0.4258797,-1.41708 0.9426285,-1.41708 0.5200331,0 0.9426281,0.63768 0.9426281,1.41708 l 0,15.59711"
     id="path4285" />
    <path
     style="fill:none;stroke:#c9c9c9;stroke-width:1.00018644"
     d="m 150.88625,75.681469 0,-15.597108 c 0,-0.779397 0.42259,-1.417084 0.94262,-1.417084 0.51566,0 0.94154,0.637687 0.94154,1.417084 l 0.99956,19.849672 c 0,0.780709 0.42807,1.417084 0.94481,1.417084 0.51675,0 0.94482,-0.636375 0.94482,-1.417084 l 0.99847,-25.621665 c 0,-0.77546 0.42369,-1.415772 0.94262,-1.415772 0.51894,0 0.94373,0.640312 0.94373,1.415772 l 0,52.533142"
     id="path4287" />
    <path
     style="fill:none;stroke:#c9c9c9;stroke-width:1.00018644"
     d="m 150.76253,145.98852 0,15.59711 c 0,0.77939 0.42698,1.41839 0.94263,1.41839 0.52113,0 0.94372,-0.639 0.94372,-1.41839 l 1.00066,-19.84968 c 0,-0.77939 0.42369,-1.41708 0.94263,-1.41708 0.51893,0 0.94153,0.63769 0.94153,1.41708 l 0.99956,25.62298 c 0,0.77677 0.42807,1.41446 0.94372,1.41446 0.51784,0 0.94482,-0.63769 0.94482,-1.41446 l 0,-31.44483 c 0,-0.77415 0.63937,-1.41577 1.41777,-1.41577 l 1.6039,0"
     id="path4289" />
    <rect
     style="fill:#c9c9c9"
     width="3.7880309"
     x="1.8655504"
     y="143.22389"
     height="15.77818"
     id="rect4291" />
    <rect
     style="fill:#c9c9c9"
     width="3.2296796"
     x="155.31693"
     y="100.41746"
     height="15.782117"
     id="rect4293" />
    <g
     transform="matrix(1.0948066,0,0,1.3121148,-0.0021896,-3.12003e-7)"
     id="g4295">
        <path
       style="fill:#353535"
       d="m 139.273,95.051 c 0,1.783 -1.747,3.24 -3.883,3.24 l -121.926,0 c -2.136,0 -3.883,-1.457 -3.883,-3.24 l 0,-23.76 c 0,-1.781 1.747,-3.239 3.883,-3.239 l 121.926,0 c 2.137,0 3.884,1.458 3.884,3.239 l -0.001,23.76 0,0 z"
       id="path4297" />
        <path
       style="fill:#ce925d"
       d="m 101.94,68.101 33.709,0 c 2.136,0 3.883,1.456 3.883,3.239 l 0,23.766 c 0,1.782 -1.747,3.24 -3.883,3.24 l -33.709,0 0,-30.245 z"
       id="path4299" />
        <path
       style="opacity:0.35"
       enable-background="new    "
       d="m 13.758,97.052 c -1.607,0 -3.658,-1.241 -3.658,-2.714 l 0,-6.801 c 0,1.474 2.051,3.783 3.658,3.783 l 121.041,0 c 1.608,0 3.659,-2.31 3.659,-3.783 l 0,6.802 c 0,1.474 -2.051,2.714 -3.659,2.714 l -121.041,-10e-4 0,0 z"
       id="path4301" />
        <path
       style="fill:#b2b2b2"
       d="m 139.164,82.97 c 0,6.774 -0.31,12.263 -0.691,12.263 -0.381,0 -0.382,-24.523 0,-24.523 0.382,0 0.691,5.489 0.691,12.26"
       id="path4303" />
        <path
       style="fill:#7c7c7c"
       d="m 138.906,87.151 c -0.254,0 -0.254,-9.062 0,-9.062 l -0.008,0.001 c 0,0.559 0.543,1.011 1.212,1.011 l 0.549,0 c 0.668,0 1.211,0.452 1.211,1.012 l 0,5.011 c 0,0.557 -0.543,1.013 -1.211,1.013 l -0.549,0 c -0.669,0 -1.212,0.452 -1.212,1.011 l 0.008,0.003 0,0 z"
       id="path4305" />
        <g
       id="g4307">
            <g
         id="g4309">
                <path
           style="fill:#e0e0e0"
           d="m 35.434,80.895 -0.515,1.296 -1.632,0 2.727,-6.852 2.322,0 2.781,6.852 -1.599,0 -0.536,-1.296 -3.548,0 z m 1.784,-4.55 -0.022,0 -1.401,3.556 2.836,0 -1.413,-3.556 z"
           id="path4311" />
                <path
           style="fill:#e0e0e0"
           d="m 43.203,80.895 -0.515,1.296 -1.629,0 2.724,-6.852 2.322,0 2.782,6.852 -1.599,0 -0.536,-1.296 -3.549,0 z m 1.784,-4.55 -0.021,0 -1.403,3.556 2.836,0 -1.412,-3.556 z"
           id="path4315" />
                <path
           style="fill:#e0e0e0"
           d="m 53.417,82.194 0,-6.853 4.088,0 c 1.61,0 2.417,0.272 2.417,1.782 0,0.783 -0.173,1.316 -1.169,1.516 l 0,0.038 c 1.15,0.11 1.369,0.741 1.369,1.606 0,1.518 -0.745,1.91 -2.476,1.91 l -4.229,0 0,0.001 z m 1.577,-3.985 2.264,0 c 0.891,0 1.085,-0.229 1.085,-0.959 0,-0.73 -0.351,-0.786 -1.128,-0.786 l -2.224,0 0.003,1.745 0,0 z m 0,2.86 2.158,0 c 0.938,0 1.389,-0.055 1.389,-0.895 0,-0.749 -0.197,-0.969 -1.125,-0.969 l -2.42,0 -0.002,1.864 0,0 z"
           id="path4317" />
                <path
           style="fill:#e0e0e0"
           d="m 64.998,81.59 -0.033,0 c -0.274,0.641 -1.117,0.657 -1.786,0.657 -1.303,0 -2.146,-0.229 -2.146,-1.526 0,-1.151 0.723,-1.471 2.146,-1.471 0.702,0 1.391,0.009 1.72,0.548 l 0.044,0 0,-0.622 c 0,-0.776 -0.077,-1.051 -1.227,-1.051 -0.603,0 -1.085,0.048 -1.085,0.667 l -1.381,0 c 0,-1.397 1.153,-1.45 2.464,-1.45 1.843,0 2.606,0.237 2.606,1.846 l 0,3.004 -1.382,0 0.06,-0.602 z m -2.585,-0.868 c 0,0.677 0.326,0.741 1.259,0.741 0.733,0 1.271,-0.053 1.271,-0.741 0,-0.667 -0.59,-0.685 -1.271,-0.685 -0.701,0 -1.259,0 -1.259,0.685 z"
           id="path4319" />
                <path
           style="fill:#e0e0e0"
           d="m 66.994,77.396 0.724,0 0,-1.088 1.38,0 0,1.088 2.201,0 0,0.877 -2.201,0 0,2.458 c 0.013,0.439 0.013,0.639 0.59,0.639 0.778,0 0.69,-0.51 0.69,-1.011 l 1.216,0 c 0.022,1.45 -0.417,1.889 -1.906,1.889 -1.511,0 -1.972,-0.292 -1.972,-1.509 l 0,-2.467 -0.724,0 0.002,-0.876 0,0 z"
           id="path4321" />
                <path
           style="fill:#e0e0e0"
           d="m 71.652,77.396 0.723,0 0,-1.088 1.38,0 0,1.088 2.202,0 0,0.877 -2.202,0 0,2.458 c 0.011,0.439 0.011,0.639 0.59,0.639 0.779,0 0.691,-0.51 0.691,-1.011 l 1.216,0 c 0.021,1.45 -0.417,1.889 -1.907,1.889 -1.509,0 -1.969,-0.292 -1.969,-1.509 l 0,-2.467 -0.724,0 0,-0.876 0,0 z"
           id="path4323" />
                <path
           style="fill:#e0e0e0"
           d="m 82.125,80.668 c 0,1.508 -1.042,1.58 -2.683,1.58 -2.202,0 -2.647,-0.584 -2.647,-2.439 0,-1.719 0.326,-2.465 2.647,-2.465 2.368,0 2.683,0.576 2.683,2.668 l -3.954,0 c 0,1.032 0.033,1.361 1.27,1.361 0.767,0 1.306,0.01 1.306,-0.705 l 1.378,0 0,0 z m -1.38,-1.389 c 0,-0.987 -0.175,-1.062 -1.306,-1.062 -1.194,0 -1.27,0.21 -1.27,1.062 l 2.576,0 z"
           id="path4325" />
                <path
           style="fill:#e0e0e0"
           d="m 84.505,77.396 -0.03,0.631 0.055,0 c 0.274,-0.53 0.866,-0.684 1.533,-0.684 1.216,0 1.512,0.604 1.512,1.508 l 0,0.384 -1.292,0 0,-0.246 c 0,-0.484 -0.056,-0.769 -0.702,-0.769 -0.821,0 -1.062,0.396 -1.042,1.015 l 0,2.961 -1.381,0 0,-4.797 1.347,-0.003 0,0 z"
           id="path4327" />
                <path
           style="fill:#e0e0e0"
           d="m 91.702,82.385 c -0.32,1.088 -0.584,1.936 -2.19,1.936 -0.197,0 -0.394,-0.025 -0.591,-0.037 l 0,-0.868 c 0.099,0.009 0.201,0.028 0.295,0.028 0.865,0 0.997,-0.695 1.12,-1.255 l -0.667,0 -1.895,-4.798 1.427,0 1.456,4.085 0.02,0 1.119,-4.085 1.402,0 -1.496,4.994 z"
           id="path4329" />
            </g>
        </g>
        <path
       style="opacity:0.35;fill:#ffffff"
       enable-background="new    "
       d="m 135.506,76.983 c 0,1.08 -1.406,1.956 -3.141,1.956 l -116.276,0 c -1.732,0 -3.14,-0.8 -3.14,-1.88 l 0,-5.895 c 0,-1.08 1.406,-2.033 3.14,-2.033 l 116.275,0 c 1.735,0 3.143,0.877 3.143,1.957 l 0,5.895 -0.001,0 z"
       id="path4331" />
    </g>
    <g
     transform="matrix(1.0948066,0,0,1.3121148,-0.0021896,-3.12003e-7)"
     id="g4333">
        <path
       style="fill:#353535"
       d="m 7.764,127.822 c 0,1.78 1.746,3.24 3.883,3.24 l 121.924,0 c 2.136,0 3.883,-1.46 3.883,-3.24 l 0,-23.763 c 0,-1.781 -1.747,-3.24 -3.883,-3.24 l -121.924,0 c -2.137,0 -3.883,1.459 -3.883,3.24 l 0,23.763 z"
       id="path4335" />
        <path
       style="fill:#ce925d"
       d="m 45.356,100.822 -33.709,0 c -2.137,0 -3.883,1.458 -3.883,3.239 l 0,23.764 c 0,1.781 1.746,3.239 3.883,3.239 l 33.709,0 0,-30.242 0,0 z"
       id="path4337" />
        <path
       style="opacity:0.35"
       enable-background="new    "
       d="m 133.278,129.825 c 1.607,0 3.657,-1.244 3.657,-2.715 l 0,-6.802 c 0,1.474 -2.05,3.782 -3.657,3.782 l -121.043,0 c -1.607,0 -3.658,-2.309 -3.658,-3.782 l 0,6.802 c 0,1.474 2.051,2.715 3.658,2.715 l 121.043,0 z"
       id="path4339" />
        <path
       style="fill:#b2b2b2"
       d="m 7.873,115.741 c 0,6.773 0.311,12.264 0.693,12.264 0.383,0 0.383,-24.525 0,-24.525 -0.383,-0.001 -0.693,5.489 -0.693,12.261"
       id="path4341" />
        <path
       style="fill:#7c7c7c"
       d="m 8.131,119.922 c 0.253,0 0.253,-9.062 0,-9.062 l 0.007,0.001 c 0,0.559 -0.542,1.011 -1.209,1.011 l -0.552,0 c -0.666,0 -1.212,0.455 -1.212,1.012 l 0,5.012 c 0,0.557 0.546,1.012 1.212,1.012 l 0.551,0 c 0.667,0 1.209,0.452 1.209,1.013 l -0.006,10e-4 0,0 z"
       id="path4343" />
        <g
       id="g4345">
            <g
         id="g4347">
                <path
           style="fill:#e0e0e0"
           d="m 112.387,116.262 0.516,-1.297 1.632,0 -2.728,6.853 -2.322,0 -2.781,-6.853 1.6,0 0.537,1.297 3.546,0 z m -1.784,4.551 0.021,0 1.402,-3.555 -2.837,0 1.414,3.555 z"
           id="path4349" />
                <path
           style="fill:#e0e0e0"
           d="m 104.618,116.262 0.515,-1.297 1.633,0 -2.728,6.853 -2.322,0 -2.781,-6.853 1.599,0 0.537,1.297 3.547,0 z m -1.785,4.551 0.022,0 1.401,-3.555 -2.838,0 1.415,3.555 z"
           id="path4353" />
                <path
           style="fill:#e0e0e0"
           d="m 94.406,114.963 0,6.852 -4.09,0 c -1.609,0 -2.417,-0.271 -2.417,-1.781 0,-0.784 0.173,-1.316 1.169,-1.515 l 0,-0.039 c -1.15,-0.11 -1.368,-0.741 -1.368,-1.606 0,-1.518 0.742,-1.91 2.477,-1.91 l 4.229,0 0,-0.001 z m -1.578,1.125 -2.157,0 c -0.939,0 -1.39,0.055 -1.39,0.895 0,0.749 0.198,0.969 1.127,0.969 l 2.418,0 0.002,-1.864 0,0 z m 0,2.86 -2.266,0 c -0.89,0 -1.084,0.229 -1.084,0.96 0,0.731 0.35,0.786 1.127,0.786 l 2.224,0 -10e-4,-1.746 0,0 z"
           id="path4355" />
                <path
           style="fill:#e0e0e0"
           d="m 82.824,115.567 0.033,0 c 0.273,-0.643 1.116,-0.658 1.785,-0.658 1.304,0 2.148,0.228 2.148,1.525 0,1.151 -0.723,1.472 -2.148,1.472 -0.701,0 -1.39,-0.009 -1.718,-0.55 l -0.044,0 0,0.623 c 0,0.776 0.077,1.05 1.226,1.05 0.603,0 1.085,-0.046 1.085,-0.666 l 1.384,0 c 0,1.397 -1.151,1.45 -2.466,1.45 -1.838,0 -2.605,-0.238 -2.605,-1.847 l 0,-3.005 1.38,0 -0.06,0.606 z m 2.584,0.867 c 0,-0.676 -0.326,-0.739 -1.259,-0.739 -0.735,0 -1.271,0.052 -1.271,0.739 0,0.668 0.589,0.686 1.271,0.686 0.702,0.002 1.259,0.002 1.259,-0.686 z"
           id="path4357" />
                <path
           style="fill:#e0e0e0"
           d="m 80.828,119.762 -0.723,0 0,1.087 -1.381,0 0,-1.087 -2.201,0 0,-0.877 2.201,0 0,-2.459 c -0.013,-0.439 -0.013,-0.643 -0.59,-0.643 -0.778,0 -0.69,0.514 -0.69,1.016 l -1.215,0 c -0.022,-1.451 0.417,-1.89 1.906,-1.89 1.511,0 1.972,0.292 1.972,1.507 l 0,2.467 0.723,0 -0.002,0.879 0,0 z"
           id="path4359" />
                <path
           style="fill:#e0e0e0"
           d="m 76.17,119.762 -0.723,0 0,1.087 -1.38,0 0,-1.087 -2.202,0 0,-0.877 2.202,0 0,-2.459 c -0.011,-0.439 -0.011,-0.643 -0.589,-0.643 -0.78,0 -0.691,0.514 -0.691,1.016 l -1.217,0 c -0.02,-1.451 0.418,-1.89 1.908,-1.89 1.508,0 1.969,0.292 1.969,1.507 l 0,2.467 0.723,0 0,0.879 0,0 z"
           id="path4361" />
                <path
           style="fill:#e0e0e0"
           d="m 65.697,116.489 c 0,-1.508 1.042,-1.58 2.683,-1.58 2.202,0 2.647,0.585 2.647,2.439 0,1.721 -0.326,2.467 -2.647,2.467 -2.368,0 -2.683,-0.576 -2.683,-2.67 l 3.954,0 c 0,-1.031 -0.033,-1.361 -1.27,-1.361 -0.768,0 -1.306,-0.01 -1.306,0.705 l -1.378,0 0,0 z m 1.38,1.39 c 0,0.986 0.175,1.062 1.306,1.062 1.195,0 1.271,-0.209 1.271,-1.062 l -2.577,0 z"
           id="path4363" />
                <path
           style="fill:#e0e0e0"
           d="m 63.317,119.762 0.03,-0.631 -0.055,0 c -0.274,0.531 -0.866,0.684 -1.534,0.684 -1.215,0 -1.511,-0.604 -1.511,-1.508 l 0,-0.385 1.292,0 0,0.246 c 0,0.484 0.055,0.768 0.701,0.768 0.821,0 1.062,-0.396 1.043,-1.014 l 0,-2.961 1.38,0 0,4.797 -1.346,0.004 0,0 z"
           id="path4365" />
                <path
           style="fill:#e0e0e0"
           d="m 56.12,114.77 c 0.32,-1.088 0.583,-1.936 2.189,-1.936 0.197,0 0.395,0.025 0.592,0.036 l 0,0.868 c -0.099,-0.009 -0.2,-0.027 -0.296,-0.027 -0.866,0 -0.997,0.695 -1.121,1.254 l 0.668,0 1.895,4.799 -1.427,0 -1.457,-4.086 -0.021,0 -1.118,4.086 -1.402,0 1.498,-4.994 z"
           id="path4367" />
            </g>
        </g>
        <path
       style="opacity:0.35;fill:#ffffff"
       enable-background="new    "
       d="m 11.53,109.753 c 0,1.082 1.406,1.955 3.139,1.955 l 116.276,0 c 1.732,0 3.141,-0.799 3.141,-1.88 l 0,-5.895 c 0,-1.08 -1.408,-2.033 -3.141,-2.033 l -116.274,0 c -1.732,0 -3.14,0.877 -3.14,1.957 l -0.001,5.896 0,0 z"
       id="path4369" />
    </g>
    <g
     transform="matrix(1.0948066,0,0,1.3121148,-0.0021896,-3.12003e-7)"
     id="g4371">
        <path
       style="fill:#1a1a1a"
       d="m 7.357,0.109 1.79,1.16 c 0,0 1.276,1.206 2.389,2.492 0.663,0.767 1.218,3.466 2.036,4.151 0.821,0.683 1.993,0.831 2.987,0.831 0.277,0 23.058,0 23.335,0 0.995,0 2.164,-0.145 2.986,-0.831 0.82,-0.685 1.378,-3.384 2.039,-4.151 1.111,-1.286 2.389,-2.492 2.389,-2.492 l 1.79,-1.16 -41.741,0 z"
       id="path4373" />
        <path
       style="opacity:0.2;fill:#ffffff"
       enable-background="new    "
       d="m 9.941,0.984 0.466,0.145 c 0,0 0,0.539 1.037,1.111 0.623,0.342 1.138,0.492 1.904,0.798 0.768,0.305 1.858,0.37 2.791,0.37 0.258,0 23.918,0 24.181,0 0.932,0 2.021,-0.065 2.787,-0.37 0.768,-0.306 1.286,-0.456 1.904,-0.798 1.041,-0.573 1.04,-1.111 1.04,-1.111 L 46.509,0.985 9.941,0.984 Z"
       id="path4375" />
    </g>
    <g
     transform="matrix(1.0948066,0,0,1.3121148,-0.0021896,-3.12003e-7)"
     id="g4377">
        <path
       style="fill:#1a1a1a"
       d="m 98.374,0.109 1.79,1.16 c 0,0 1.276,1.206 2.389,2.492 0.663,0.767 1.219,3.466 2.036,4.151 0.82,0.683 1.993,0.831 2.987,0.831 0.278,0 23.058,0 23.334,0 0.996,0 2.165,-0.145 2.988,-0.831 0.818,-0.685 1.376,-3.384 2.036,-4.151 1.112,-1.286 2.39,-2.492 2.39,-2.492 l 1.79,-1.16 -41.74,0 z"
       id="path4379" />
        <path
       style="opacity:0.2;fill:#ffffff"
       enable-background="new    "
       d="m 100.958,0.984 0.468,0.145 c 0,0 0,0.539 1.036,1.111 0.623,0.342 1.138,0.492 1.904,0.798 0.771,0.305 1.858,0.37 2.791,0.37 0.258,0 23.919,0 24.182,0 0.932,0 2.021,-0.065 2.788,-0.37 0.768,-0.306 1.284,-0.456 1.905,-0.798 1.039,-0.573 1.038,-1.111 1.038,-1.111 l 0.458,-0.144 -36.57,-0.001 z"
       id="path4381" />
    </g>
    <g
     transform="matrix(1.0948066,0,0,1.3121148,-0.0021896,-3.12003e-7)"
     id="g4383">
        <path
       style="fill:#1a1a1a"
       d="m 7.357,132.767 1.79,-1.161 c 0,0 1.276,-1.205 2.389,-2.492 0.663,-0.766 1.218,-3.466 2.036,-4.15 0.821,-0.685 1.993,-0.83 2.987,-0.83 0.277,0 23.058,0 23.335,0 0.995,0 2.164,0.143 2.986,0.83 0.82,0.685 1.378,3.385 2.039,4.15 1.111,1.287 2.389,2.492 2.389,2.492 l 1.79,1.161 -41.741,0 z"
       id="path4385" />
        <path
       d="m 9.941,131.893 0.466,-0.145 c 0,0 0,-0.539 1.037,-1.111 0.623,-0.344 1.138,-0.492 1.904,-0.798 0.768,-0.306 1.858,-0.37 2.791,-0.37 0.258,0 23.918,0 24.181,0 0.932,0 2.021,0.064 2.787,0.37 0.768,0.304 1.286,0.454 1.904,0.798 1.041,0.572 1.04,1.111 1.04,1.111 l 0.458,0.141 -36.568,0.004 z"
       id="path4387" />
    </g>
    <g
     transform="matrix(1.0948066,0,0,1.3121148,-0.0021896,-3.12003e-7)"
     id="g4389">
        <path
       style="fill:#1a1a1a"
       d="m 98.374,132.767 1.79,-1.161 c 0,0 1.276,-1.205 2.389,-2.492 0.663,-0.766 1.219,-3.466 2.036,-4.15 0.82,-0.685 1.993,-0.83 2.987,-0.83 0.278,0 23.058,0 23.334,0 0.996,0 2.165,0.143 2.988,0.83 0.819,0.686 1.376,3.385 2.036,4.15 1.112,1.287 2.39,2.492 2.39,2.492 l 1.79,1.161 -41.74,0 z"
       id="path4391" />
        <path
       d="m 100.958,131.893 0.468,-0.145 c 0,0 0,-0.539 1.036,-1.111 0.623,-0.344 1.138,-0.492 1.904,-0.798 0.771,-0.306 1.858,-0.37 2.791,-0.37 0.258,0 23.919,0 24.182,0 0.932,0 2.021,0.064 2.788,0.37 0.768,0.304 1.284,0.454 1.905,0.798 1.039,0.572 1.038,1.111 1.038,1.111 l 0.458,0.141 -36.57,0.004 z"
       id="path4393" />
    </g>
    <g
     id="breadboard">
        <path
       style="fill:none;stroke:#000000;stroke-width:3"
       d="m 161.42215,134.49266 5.633,0"
       id="path4395" />
        <path
       style="fill:none;stroke:#ff0000;stroke-width:3"
       d="m 161.42206,33.984351 5.633,0"
       id="path4397" />
        <line
        fill="none"
        stroke="#ff0000"
        stroke-width="3"
        stroke-linecap="round"
       id="connector1leg"
       x1="167.36728"
       y1="33.984341"
       x2="172.36728"
       y2="33.984341" />
        <line
        fill="none"
        stroke="#000000"
        stroke-width="3"
        stroke-linecap="round"
       id="connector0leg"
       x1="167.05493"
       y1="134.49281"
       x2="172.05493"
       y2="134.49281" />
        <rect
       style="fill:#8c8c8c"
       width="1"
       x="169.36728"
       y="32.484341"
       height="3"
       id="connector1pin" />
        <rect
       style="fill:#8c8c8c"
       width="1"
       x="169.05493"
       y="132.99281"
       height="3"
       id="connector0pin" />
    </g>
</svg>
